<?xml version="1.0" encoding="UTF-8" standalone="no"?>
<!-- Created with Inkscape (http://www.inkscape.org/) -->

<svg
   width="179.79424mm"
   height="179.84238mm"
   viewBox="0 0 179.79424 179.84238"
   version="1.1"
   id="svg5"
   inkscape:version="1.1 (c4e8f9ed74, 2021-05-24)"
   sodipodi:docname="arch-logo.svg"
   inkscape:export-filename="/home/mikl/git-ssh/aif-master/icons/arch-logo.png"
   inkscape:export-xdpi="36.156105"
   inkscape:export-ydpi="36.156105"
   xmlns:inkscape="http://www.inkscape.org/namespaces/inkscape"
   xmlns:sodipodi="http://sodipodi.sourceforge.net/DTD/sodipodi-0.dtd"
   xmlns:xlink="http://www.w3.org/1999/xlink"
   xmlns="http://www.w3.org/2000/svg"
   xmlns:svg="http://www.w3.org/2000/svg">
  <sodipodi:namedview
     id="namedview7"
     pagecolor="#ffffff"
     bordercolor="#666666"
     borderopacity="1.0"
     inkscape:pageshadow="2"
     inkscape:pageopacity="0.0"
     inkscape:pagecheckerboard="0"
     inkscape:document-units="mm"
     showgrid="false"
     fit-margin-top="0"
     fit-margin-left="0"
     fit-margin-right="0"
     fit-margin-bottom="0"
     inkscape:zoom="0.47393378"
     inkscape:cx="195.17495"
     inkscape:cy="297.50992"
     inkscape:window-width="1366"
     inkscape:window-height="717"
     inkscape:window-x="0"
     inkscape:window-y="0"
     inkscape:window-maximized="1"
     inkscape:current-layer="layer1" />
  <defs
     id="defs2">
    <linearGradient
       inkscape:collect="always"
       id="linearGradient23093">
      <stop
         style="stop-color:#001731;stop-opacity:1"
         offset="0"
         id="stop23089" />
      <stop
         style="stop-color:#025c90;stop-opacity:1"
         offset="0.5079037"
         id="stop23323" />
      <stop
         style="stop-color:#05b8f1;stop-opacity:1"
         offset="1"
         id="stop23091" />
    </linearGradient>
    <linearGradient
       id="linearGradient21920"
       inkscape:swatch="solid">
      <stop
         style="stop-color:#001731;stop-opacity:1;"
         offset="0"
         id="stop21918" />
    </linearGradient>
    <linearGradient
       id="linearGradient18794"
       inkscape:swatch="solid">
      <stop
         style="stop-color:#002f5d;stop-opacity:1;"
         offset="0"
         id="stop18792" />
    </linearGradient>
    <linearGradient
       id="linearGradient11846"
       inkscape:swatch="solid">
      <stop
         style="stop-color:#025c90;stop-opacity:1;"
         offset="0"
         id="stop11844" />
    </linearGradient>
    <linearGradient
       id="linearGradient9071"
       inkscape:swatch="solid">
      <stop
         style="stop-color:#017dc5;stop-opacity:1;"
         offset="0"
         id="stop9069" />
    </linearGradient>
    <linearGradient
       id="linearGradient4229"
       inkscape:swatch="solid">
      <stop
         style="stop-color:#05b8f1;stop-opacity:1;"
         offset="0"
         id="stop4227" />
    </linearGradient>
    <linearGradient
       inkscape:collect="always"
       xlink:href="#linearGradient23093"
       id="linearGradient23095"
       x1="193.66087"
       y1="91.376732"
       x2="12.362467"
       y2="92.276375"
       gradientUnits="userSpaceOnUse" />
  </defs>
  <g
     inkscape:label="Слой 1"
     inkscape:groupmode="layer"
     id="layer1"
     transform="translate(-12.244809,-8.5863537)">
    <path
       style="fill:url(#linearGradient23095);stroke-width:0.352778;fill-opacity:1"
       d="m 12.244809,188.31352 c 0,-0.098 1.08881,-2.12204 2.41959,-4.49792 22.0584,-39.38168 47.40094,-86.638956 58.28138,-108.679707 2.47342,-5.010464 4.58719,-9.199985 4.69725,-9.310052 0.11007,-0.110067 1.35519,0.661539 2.76692,1.71468 3.05563,2.279459 7.21623,4.930895 10.85708,6.918907 2.35168,1.28409 11.103551,5.376675 11.497861,5.376675 0.0843,0 -1.55541,-1.293544 -3.643811,-2.874539 -5.13266,-3.885597 -9.68346,-7.895025 -14.62868,-12.888401 l -4.12879,-4.169004 2.4934,-5.468055 c 3.59209,-7.877465 8.99509,-20.652299 14.4354,-34.13099 2.60389,-6.45128 4.813721,-11.7247202 4.910731,-11.7187552 0.097,0.006 2.22805,4.8874102 4.73562,10.8476562 15.22932,36.198513 26.30062,58.856653 55.53579,113.657695 4.3951,8.23857 8.05264,15.13039 8.12786,15.31516 0.0752,0.18477 -0.87807,-0.23158 -2.11841,-0.92522 -3.52767,-1.97279 -8.49918,-4.06003 -14.06975,-5.90706 -7.65813,-2.5392 -8.2366,-2.54016 -3.70416,-0.006 5.92609,3.31317 13.09132,8.25114 20.137,13.87756 l 6.37866,5.09377 7.47769,13.84853 c 4.11273,7.6167 7.41313,13.9131 7.33422,13.99201 -0.0789,0.0789 -0.99614,-0.36078 -2.0383,-0.97708 -4.14465,-2.45103 -16.83256,-9.28711 -22.54815,-12.14864 -15.44957,-7.73489 -28.68449,-12.85928 -40.65268,-15.74019 -2.56489,-0.6174 -4.70296,-1.14972 -4.75127,-1.18292 -0.0483,-0.0332 0.14722,-1.71418 0.43451,-3.7355 1.63858,-11.52891 -0.76794,-23.94451 -6.22149,-32.09765 -2.44132,-3.64982 -4.87977,-5.91658 -8.05441,-7.48732 -2.13845,-1.05806 -2.52937,-1.13164 -5.99723,-1.12887 -3.521421,0.003 -3.825421,0.0632 -5.990751,1.19008 -4.43915,2.31023 -8.46219,7.32526 -10.92884,13.62362 -2.33251,5.95589 -2.9869,9.83225 -2.97772,17.63889 0.005,4.66235 0.17366,7.49044 0.55245,9.29021 0.38642,1.83601 0.43067,2.61914 0.15238,2.69662 -0.2157,0.0601 -2.61469,0.62058 -5.33108,1.24559 -15.40048,3.54347 -34.87157,11.91949 -58.53763,25.18156 -6.86311,3.84597 -6.90264,3.86639 -6.90264,3.56484 z"
       id="path39" />
  </g>
</svg>
